<?xml version="1.0" standalone="no"?>
<!DOCTYPE svg PUBLIC "-//W3C//DTD SVG 20010904//EN"
 "http://www.w3.org/TR/2001/REC-SVG-20010904/DTD/svg10.dtd">
<svg version="1.0" xmlns="http://www.w3.org/2000/svg"
 width="3000.000000pt" height="3000.000000pt" viewBox="0 0 3000.000000 3000.000000"
 preserveAspectRatio="xMidYMid meet">
<metadata>
Created by potrace 1.11, written by Peter Selinger 2001-2013
</metadata>
<g transform="translate(0.000000,3000.000000) scale(0.100000,-0.100000)"
fill="#000000" stroke="none">
<path d="M14275 28769 c-1675 -75 -3380 -478 -4930 -1165 -389 -172 -971 -469
-1375 -702 -699 -402 -1479 -959 -2090 -1491 -433 -378 -1023 -968 -1401
-1401 -532 -611 -1089 -1391 -1491 -2090 -233 -404 -530 -986 -702 -1375 -693
-1564 -1089 -3249 -1166 -4960 -13 -283 -13 -1007 0 -1290 77 -1711 473 -3396
1166 -4960 172 -389 469 -971 702 -1375 402 -699 959 -1479 1491 -2090 378
-433 968 -1023 1401 -1401 611 -532 1391 -1089 2090 -1491 404 -233 986 -530
1375 -702 1564 -693 3249 -1089 4960 -1166 283 -13 1007 -13 1290 0 1711 77
3396 473 4960 1166 389 172 971 469 1375 702 699 402 1479 959 2090 1491 433
378 1023 968 1401 1401 532 611 1089 1391 1491 2090 233 404 530 986 702 1375
693 1564 1089 3249 1166 4960 20 449 11 1225 -20 1655 -115 1584 -504 3147
-1146 4595 -172 389 -469 971 -702 1375 -402 699 -959 1479 -1491 2090 -378
433 -968 1023 -1401 1401 -611 532 -1391 1089 -2090 1491 -404 233 -986 530
-1375 702 -1564 693 -3249 1089 -4960 1166 -250 11 -1065 11 -1320 -1z m-2463
-6901 c52 -139 818 -2190 1702 -4558 884 -2368 1611 -4311 1615 -4318 9 -16
-116 -336 1515 3873 761 1964 1406 3640 1434 3725 65 199 118 386 181 630 92
362 181 787 181 866 l0 34 3075 0 3075 0 -2 -382 -3 -383 -145 -12 c-374 -33
-747 -103 -1100 -204 -240 -70 -419 -186 -517 -336 -65 -101 -128 -295 -152
-467 -8 -55 -11 -1571 -11 -5128 0 -5563 -5 -5155 60 -5350 71 -212 155 -317
363 -452 224 -147 428 -209 1002 -305 132 -22 292 -47 355 -56 63 -9 127 -18
143 -21 l27 -6 0 -379 0 -379 -3755 0 -3755 0 0 380 0 379 33 5 c17 3 120 15
227 26 492 53 952 129 1125 185 224 74 430 206 544 349 97 121 160 271 198
466 17 91 18 275 20 4245 2 2283 -1 4642 -5 5243 l-7 1093 -2375 -6073 -2375
-6073 -617 -3 -617 -2 -36 117 c-90 298 -354 1044 -743 2103 -271 737 -3257
8848 -3494 9488 l-223 604 -3 -4309 c-3 -4364 -1 -4650 33 -5083 57 -710 177
-1157 401 -1496 76 -114 234 -273 347 -348 158 -105 425 -215 781 -321 346
-103 529 -149 854 -211 l22 -4 0 -380 0 -380 -2980 0 -2980 0 0 380 0 379 33
5 c900 145 1129 199 1403 331 588 284 801 714 889 1800 37 460 38 527 42 4215
4 3697 2 4034 -32 4289 -58 433 -190 758 -410 1011 -166 192 -486 403 -765
504 -161 58 -530 131 -815 161 -82 9 -169 18 -192 21 l-43 5 0 380 0 379 3188
0 3189 0 95 -252z"/>
</g>
</svg>
